<svg width="100" height="100" viewBox="0 0 100 100" fill="none" xmlns="http://www.w3.org/2000/svg">
<path d="M79.1667 83.3334H20.8333C16.231 83.3334 12.5 79.6024 12.5 75L12.5 25C12.5 20.3976 16.231 16.6667 20.8333 16.6667L62.5 16.6667C67.1024 16.6667 70.8333 20.3976 70.8333 25V29.1667M79.1667 83.3334C74.5643 83.3334 70.8333 79.6024 70.8333 75L70.8333 29.1667M79.1667 83.3334C83.769 83.3334 87.5 79.6024 87.5 75V37.5C87.5 32.8976 83.769 29.1667 79.1667 29.1667L70.8333 29.1667M54.1667 16.6667L37.5 16.6667M29.1667 66.6667H54.1667M29.1667 33.3334H54.1667V50H29.1667V33.3334Z" stroke="#111827" stroke-width="2" stroke-linecap="round" stroke-linejoin="round"/>
</svg>
